# xmcd
#
# Track frame offsets: 
#        152
#        10637
#        20795
#        29910
#        38677
#        46667
#        54520
#        63910
#        76540
#        87265
#        100075
#        110217
#        120617
#        130432
#        139347
#        150072
#        159720
#        170567
#        182327
#        192137
#        204607
#        215650
#
# Disc length: 3016 seconds
#
# Revision: 1
# Processed by: cddbd v1.4PL0 Copyright (c) Steve Scherf et al.
# Submitted via: ExactAudioCopy v0.90a11
#
DISCID=250bc616
DTITLE=FATS DOMINO - They Call Me The Fat Man Cd 2
DYEAR=1900
DGENRE=
TTITLE0=I Want To Walk You Home
TTITLE1=Be My Guest
TTITLE2=Walking To New Orleans
TTITLE3=Don't Come Knockin'
TTITLE4=Three Nights A Week
TTITLE5=Shu Rah
TTITLE6=My Girl Josephine
TTITLE7=It Keeps Rainin'
TTITLE8=What A Price
TTITLE9=One Night
TTITLE10=You Win Again
TTITLE11=Let The Four Winds Blow
TTITLE12=Your Cheatin' Heart
TTITLE13=What A Party
TTITLE14=Jambalaya (On The Bayou)
TTITLE15=Dance With Mr. Domino
TTITLE16=There Goes My Heart Again
TTITLE17=Red Sails In The Sunset
TTITLE18=When I'm Walking
TTITLE19=Lazy Lady
TTITLE20=Kansas City
TTITLE21=Bye Baby, Bye Bye
EXTD=
EXTT0=
EXTT1=
EXTT2=
EXTT3=
EXTT4=
EXTT5=
EXTT6=
EXTT7=
EXTT8=
EXTT9=
EXTT10=
EXTT11=
EXTT12=
EXTT13=
EXTT14=
EXTT15=
EXTT16=
EXTT17=
EXTT18=
EXTT19=
EXTT20=
EXTT21=
PLAYORDER=
